<?xml version="1.0" encoding="UTF-8" standalone="no"?>
<svg
   viewbox="0 0 16 16"
   height="16"
   width="16"
   version="1.1"
   id="svg4"
   sodipodi:docname="virt-org.svg"
   inkscape:version="1.2.1 (9c6d41e410, 2022-07-14, custom)"
   xmlns:inkscape="http://www.inkscape.org/namespaces/inkscape"
   xmlns:sodipodi="http://sodipodi.sourceforge.net/DTD/sodipodi-0.dtd"
   xmlns="http://www.w3.org/2000/svg"
   xmlns:svg="http://www.w3.org/2000/svg">
  <defs
     id="defs8" />
  <sodipodi:namedview
     id="namedview6"
     pagecolor="#ffffff"
     bordercolor="#000000"
     borderopacity="0.25"
     inkscape:showpageshadow="2"
     inkscape:pageopacity="0.0"
     inkscape:pagecheckerboard="0"
     inkscape:deskcolor="#d1d1d1"
     showgrid="false"
     inkscape:zoom="25.3125"
     inkscape:cx="2.054321"
     inkscape:cy="11.674074"
     inkscape:window-width="1920"
     inkscape:window-height="997"
     inkscape:window-x="0"
     inkscape:window-y="0"
     inkscape:window-maximized="1"
     inkscape:current-layer="svg4" />
  <path
     d="m 8.0030044,2.3545192 c -1.4000239,0 -2.400041,1.1440195 -2.400041,2.2400382 0,1.1200191 0.080002,1.9200327 0.6400111,2.8000477 C 6.4029771,7.626609 6.6429813,7.6746098 6.8029839,7.8746132 6.9109858,8.27462 6.9949872,8.6746269 6.882985,9.0746337 6.6589815,9.1546351 6.4629782,9.2506367 6.2429745,9.3386382 6.1749734,9.2186361 6.0589714,9.1786354 5.8669679,9.0186328 5.2829579,8.6666267 4.6189467,8.4186225 4.0029361,8.1866185 c -0.080002,-0.296005 -0.080002,-0.5200088 0,-0.8000136 C 4.1277383,7.2538026 4.2989412,7.1706012 4.4029429,7.0425991 4.7709492,6.5625909 4.8029497,5.7193765 4.8029497,5.1465667 c 0,-0.8480144 -0.763213,-1.5200259 -1.6000265,-1.5200259 -0.9360158,0 -1.6000272,0.8000137 -1.6000272,1.5200259 0,0.7440127 0.0272,1.3120224 0.4000068,1.8960324 0.1040018,0.1600027 0.2936051,0.2080035 0.4000068,0.3440058 0.080002,0.2640045 0.080002,0.5232089 0,0.8000136 C 1.7228981,8.4266227 1.1228878,8.6986273 0.53087781,9.0186328 0.07486999,9.3386382 0.11487068,9.1826355 0.00286878,10.242654 c -0.0880017,0.848014 1.86803172,0.904015 3.20005442,0.904015 0.048001,0 0.088002,0 0.1360017,0 -0.0432,0.219204 -0.080002,0.504008 -0.1360017,1.040018 -0.1280021,1.272021 2.8000472,1.360023 4.8000812,1.360023 2.0000336,0 4.9280836,-0.08 4.8000816,-1.360023 C 12.631083,10.586659 12.619083,10.818664 12.003072,10.346655 11.123058,9.8234464 10.043039,9.4106394 9.1230234,9.0666335 9.0030213,8.618626 9.0910227,8.2906204 9.2030248,7.8666131 9.3910279,7.6666097 9.6030316,7.5786082 9.7630342,7.3866049 10.323043,6.6785929 10.403044,5.4465719 10.403044,4.5865571 10.403044,3.3065354 9.2590257,2.346519 8.0030044,2.346519 Z"
     id="path2"
     style="display:inline;stroke-width:0.800014" />
  <path
     d="m 7.9969947,2.4612909 c 1.4000245,0 2.4000403,1.1440195 2.4000403,2.2400382 0,1.1200191 -0.08,1.9200327 -0.6400096,2.8000478 C 9.5970226,7.7333808 9.3570186,7.7813815 9.1970158,7.981385 9.089014,8.3813918 9.0050125,8.7813986 9.1170144,9.1814054 c 0.224004,0.080001 0.4200072,0.1760027 0.640011,0.2640042 0.068001,-0.1200017 0.1840031,-0.1600024 0.3760066,-0.3200051 0.58401,-0.3520061 1.248021,-0.6000103 1.864031,-0.8320142 0.08,-0.296005 0.08,-0.5200089 0,-0.8000136 C 11.872261,7.3605744 11.701058,7.2773729 11.597057,7.1493708 11.22905,6.6693626 11.197049,5.8261482 11.197049,5.2533385 c 0,-0.8480144 0.763214,-1.5200259 1.600028,-1.5200259 0.936015,0 1.600027,0.8000136 1.600027,1.5200259 0,0.7440127 -0.0272,1.3120223 -0.400006,1.8960323 -0.104002,0.1600028 -0.293605,0.2080035 -0.400007,0.3440059 -0.08,0.2640044 -0.08,0.5232089 0,0.8000136 0.680011,0.2400041 1.280021,0.5120088 1.872031,0.8320142 0.456008,0.3200051 0.416007,0.1640028 0.528009,1.2240205 0.088,0.848014 -1.868032,0.904015 -3.200054,0.904015 -0.048,0 -0.08801,0 -0.136003,0 0.04319,0.219204 0.08,0.50401 0.136003,1.040018 0.128001,1.272022 -2.8000476,1.360023 -4.8000823,1.360023 -2.000034,0 -4.928084,-0.08 -4.8000819,-1.360023 C 3.3689157,10.693431 3.380916,10.925435 3.9969267,10.453427 4.8769415,9.9302178 5.9569601,9.5174108 6.8769756,9.1734053 6.9969777,8.7253977 6.9089761,8.3973921 6.7969742,7.9733848 6.6089711,7.7733814 6.3969675,7.6853799 6.2369648,7.4933767 5.6769552,6.7853646 5.5969538,5.5533436 5.5969538,4.6933289 c 0,-1.2800218 1.1440195,-2.2400382 2.4000409,-2.2400382 z"
     id="path168"
     inkscape:label="path168"
     style="display:inline;stroke-width:0.800014" />
</svg>
